{
  "accessors": [
    {
      "bufferView": 2,
      "componentType": 5126,
      "count": 304,
      "max": [
        1.9634424448013306,
        0.4847215712070465,
        0.21658241748809814
      ],
      "min": [
        -0.02150017023086548,
        -0.4233604669570923,
        -0.23417985439300537
      ],
      "type": "VEC3"
    },
    {
      "bufferView": 2,
      "byteOffset": 3648,
      "componentType": 5126,
      "count": 304,
      "max": [
        1.0,
        0.9467400312423706,
        0.9993716478347778
      ],
      "min": [
        -1.0,
        -0.9223858118057251,
        -0.9999969601631165
      ],
      "type": "VEC3"
    },
    {
      "bufferView": 3,
      "componentType": 5126,
      "count": 304,
      "max": [
        1.0,
        0.9993716478347778,
        0.9223852157592773,
        1.0
      ],
      "min": [
        -1.0,
        -0.9993715882301331,
        -0.9223858714103699,
        -1.0
      ],
      "type": "VEC4"
    },
    {
      "bufferView": 1,
      "componentType": 5126,
      "count": 304,
      "max": [
        0.9802668690681458,
        0.6156471967697144
      ],
      "min": [
        0.730750322341919,
        0.0016880577895790339
      ],
      "type": "VEC2"
    },
    {
      "bufferView": 0,
      "componentType": 5125,
      "count": 312,
      "type": "SCALAR"
    },
    {
      "bufferView": 2,
      "byteOffset": 7296,
      "componentType": 5126,
      "count": 542,
      "max": [
        1.9740979671478271,
        0.4855276942253113,
        0.7707448601722717
      ],
      "min": [
        -0.021657736971974373,
        -0.3380165994167328,
        -0.1833704262971878
      ],
      "type": "VEC3"
    },
    {
      "bufferView": 2,
      "byteOffset": 13800,
      "componentType": 5126,
      "count": 542,
      "max": [
        1.0,
        0.9999995827674866,
        0.9955694079399109
      ],
      "min": [
        -1.0,
        -0.979734480381012,
        -1.0
      ],
      "type": "VEC3"
    },
    {
      "bufferView": 3,
      "byteOffset": 4864,
      "componentType": 5126,
      "count": 542,
      "max": [
        1.0,
        1.0,
        0.7960284352302551,
        1.0
      ],
      "min": [
        -1.0,
        -1.0,
        -0.7960282564163208,
        -1.0
      ],
      "type": "VEC4"
    },
    {
      "bufferView": 1,
      "byteOffset": 2432,
      "componentType": 5126,
      "count": 542,
      "max": [
        0.933236837387085,
        0.7451509237289429
      ],
      "min": [
        0.0012168623507022858,
        0.0012432485818862915
      ],
      "type": "VEC2"
    },
    {
      "bufferView": 0,
      "byteOffset": 1248,
      "componentType": 5125,
      "count": 552,
      "type": "SCALAR"
    },
    {
      "bufferView": 2,
      "byteOffset": 20304,
      "componentType": 5126,
      "count": 432,
      "max": [
        1.1978851556777954,
        0.8173694610595703,
        0.6010739207267761
      ],
      "min": [
        -1.1978851556777954,
        -0.026206206530332565,
        -0.03300986438989639
      ],
      "type": "VEC3"
    },
    {
      "bufferView": 2,
      "byteOffset": 25488,
      "componentType": 5126,
      "count": 432,
      "max": [
        1.0,
        0.9997107982635498,
        0.9997107982635498
      ],
      "min": [
        -1.0,
        -0.999710738658905,
        -0.9997107982635498
      ],
      "type": "VEC3"
    },
    {
      "bufferView": 3,
      "byteOffset": 13536,
      "componentType": 5126,
      "count": 432,
      "max": [
        1.0,
        0.9997107982635498,
        0.999710738658905,
        1.0
      ],
      "min": [
        -1.0,
        -0.9976925253868103,
        -0.8826937675476074,
        1.0
      ],
      "type": "VEC4"
    },
    {
      "bufferView": 1,
      "byteOffset": 6768,
      "componentType": 5126,
      "count": 432,
      "max": [
        0.955619215965271,
        0.98560631275177
      ],
      "min": [
        0.0012169773690402508,
        0.0012223819503560662
      ],
      "type": "VEC2"
    },
    {
      "bufferView": 0,
      "byteOffset": 3456,
      "componentType": 5125,
      "count": 468,
      "type": "SCALAR"
    },
    {
      "bufferView": 2,
      "byteOffset": 30672,
      "componentType": 5126,
      "count": 30,
      "max": [
        0.9935387372970581,
        0.09080340713262558,
        0.030545396730303764
      ],
      "min": [
        -0.9935387372970581,
        -0.034044262021780014,
        -0.06537329405546188
      ],
      "type": "VEC3"
    },
    {
      "bufferView": 2,
      "byteOffset": 31032,
      "componentType": 5126,
      "count": 30,
      "max": [
        1.0,
        0.8523328900337219,
        0.8523328900337219
      ],
      "min": [
        -1.0,
        -0.8523332476615906,
        -0.852333128452301
      ],
      "type": "VEC3"
    },
    {
      "bufferView": 3,
      "byteOffset": 20448,
      "componentType": 5126,
      "count": 30,
      "max": [
        1.0,
        0.5229999423027039,
        0.8523333072662354,
        1.0
      ],
      "min": [
        -1.0,
        -0.5230046510696411,
        -0.8523333072662354,
        1.0
      ],
      "type": "VEC4"
    },
    {
      "bufferView": 1,
      "byteOffset": 10224,
      "componentType": 5126,
      "count": 30,
      "max": [
        0.9931349158287048,
        0.8550570011138916
      ],
      "min": [
        0.001221388578414917,
        0.001217663288116455
      ],
      "type": "VEC2"
    },
    {
      "bufferView": 0,
      "byteOffset": 5328,
      "componentType": 5125,
      "count": 36,
      "type": "SCALAR"
    }
  ],
  "asset": {
    "extras": {
      "author": "Nikita Filimonov (https://sketchfab.com/nikita3dvisions)",
      "license": "CC-BY-4.0 (http://creativecommons.org/licenses/by/4.0/)",
      "source": "https://sketchfab.com/3d-models/bench-6-ussr-game-ready-12e4fb18364a4590862eb871c60c6b45",
      "title": "Bench 6 USSR (Game ready)"
    },
    "generator": "Sketchfab-16.15.0",
    "version": "2.0"
  },
  "bufferViews": [
    {
      "buffer": 0,
      "byteLength": 5472,
      "name": "floatBufferViews",
      "target": 34963
    },
    {
      "buffer": 0,
      "byteLength": 10464,
      "byteOffset": 5472,
      "byteStride": 8,
      "name": "floatBufferViews",
      "target": 34962
    },
    {
      "buffer": 0,
      "byteLength": 31392,
      "byteOffset": 15936,
      "byteStride": 12,
      "name": "floatBufferViews",
      "target": 34962
    },
    {
      "buffer": 0,
      "byteLength": 20928,
      "byteOffset": 47328,
      "byteStride": 16,
      "name": "floatBufferViews",
      "target": 34962
    }
  ],
  "buffers": [
    {
      "byteLength": 68256,
      "uri": "scene.bin"
    }
  ],
  "extensionsUsed": [
    "KHR_materials_specular"
  ],
  "images": [
    {
      "uri": "textures/Scene_-_Root_baseColor.png"
    },
    {
      "uri": "textures/Scene_-_Root_metallicRoughness.png"
    },
    {
      "uri": "textures/Scene_-_Root_normal.png"
    }
  ],
  "materials": [
    {
      "extensions": {
        "KHR_materials_specular": {
          "specularColorFactor": [
            1.0,
            1.0,
            1.0
          ],
          "specularFactor": 0.19961965598371345
        }
      },
      "name": "Scene_-_Root",
      "normalTexture": {
        "index": 2
      },
      "occlusionTexture": {
        "index": 1
      },
      "pbrMetallicRoughness": {
        "baseColorTexture": {
          "index": 0
        },
        "metallicRoughnessTexture": {
          "index": 1
        }
      }
    }
  ],
  "meshes": [
    {
      "name": "Base__0",
      "primitives": [
        {
          "attributes": {
            "NORMAL": 1,
            "POSITION": 0,
            "TANGENT": 2,
            "TEXCOORD_0": 3
          },
          "indices": 4,
          "material": 0,
          "mode": 4
        }
      ]
    },
    {
      "name": "Base 2__0",
      "primitives": [
        {
          "attributes": {
            "NORMAL": 6,
            "POSITION": 5,
            "TANGENT": 7,
            "TEXCOORD_0": 8
          },
          "indices": 9,
          "material": 0,
          "mode": 4
        }
      ]
    },
    {
      "name": "Wood boards.014__0",
      "primitives": [
        {
          "attributes": {
            "NORMAL": 11,
            "POSITION": 10,
            "TANGENT": 12,
            "TEXCOORD_0": 13
          },
          "indices": 14,
          "material": 0,
          "mode": 4
        }
      ]
    },
    {
      "name": "Bim__0",
      "primitives": [
        {
          "attributes": {
            "NORMAL": 16,
            "POSITION": 15,
            "TANGENT": 17,
            "TEXCOORD_0": 18
          },
          "indices": 19,
          "material": 0,
          "mode": 4
        }
      ]
    }
  ],
  "nodes": [
    {
      "children": [
        1
      ],
      "matrix": [
        1.0,
        0.0,
        0.0,
        0.0,
        0.0,
        2.220446049250313e-16,
        -1.0,
        0.0,
        0.0,
        1.0,
        2.220446049250313e-16,
        0.0,
        0.0,
        0.0,
        0.0,
        1.0
      ],
      "name": "Sketchfab_model"
    },
    {
      "children": [
        2
      ],
      "matrix": [
        0.009999999776482582,
        0.0,
        0.0,
        0.0,
        0.0,
        0.0,
        0.009999999776482582,
        0.0,
        0.0,
        -0.009999999776482582,
        0.0,
        0.0,
        0.0,
        0.0,
        0.0,
        1.0
      ],
      "name": "7350f347e7364cd08ffd67aee6ec4fec.fbx"
    },
    {
      "children": [
        3,
        5,
        7,
        9
      ],
      "name": "RootNode"
    },
    {
      "children": [
        4
      ],
      "matrix": [
        100.0,
        0.0,
        0.0,
        0.0,
        0.0,
        -1.629206793918314e-05,
        -99.99999999999868,
        0.0,
        0.0,
        99.99999999999868,
        -1.629206793918314e-05,
        0.0,
        1586.1434326171875,
        23.39691734313965,
        -39.01688003540039,
        1.0
      ],
      "name": "Base"
    },
    {
      "mesh": 0,
      "name": "Base__0"
    },
    {
      "children": [
        6
      ],
      "matrix": [
        100.0,
        0.0,
        0.0,
        0.0,
        0.0,
        -1.629206793918314e-05,
        -99.99999999999868,
        0.0,
        0.0,
        99.99999999999868,
        -1.629206793918314e-05,
        0.0,
        1585.6185302734375,
        18.37554359436035,
        -29.1933650970459,
        1.0
      ],
      "name": "Base 2"
    },
    {
      "mesh": 1,
      "name": "Base 2__0"
    },
    {
      "children": [
        8
      ],
      "matrix": [
        100.0,
        0.0,
        0.0,
        0.0,
        0.0,
        -1.629206793918314e-05,
        -99.99999999999868,
        0.0,
        0.0,
        99.99999999999868,
        -1.629206793918314e-05,
        0.0,
        1683.240478515625,
        38.81732177734375,
        4.020608425140381,
        1.0
      ],
      "name": "Wood boards.014"
    },
    {
      "mesh": 2,
      "name": "Wood boards.014__0"
    },
    {
      "children": [
        10
      ],
      "matrix": [
        100.0,
        0.0,
        0.0,
        0.0,
        0.0,
        -1.629206793918314e-05,
        -99.99999999999868,
        0.0,
        0.0,
        99.99999999999868,
        -1.629206793918314e-05,
        0.0,
        1683.102783203125,
        28.226089477539063,
        -46.192893981933594,
        1.0
      ],
      "name": "Bim"
    },
    {
      "mesh": 3,
      "name": "Bim__0"
    }
  ],
  "samplers": [
    {
      "magFilter": 9729,
      "minFilter": 9987,
      "wrapS": 10497,
      "wrapT": 10497
    }
  ],
  "scene": 0,
  "scenes": [
    {
      "name": "Sketchfab_Scene",
      "nodes": [
        0
      ]
    }
  ],
  "textures": [
    {
      "sampler": 0,
      "source": 0
    },
    {
      "sampler": 0,
      "source": 1
    },
    {
      "sampler": 0,
      "source": 2
    }
  ]
}
